<svg width="30" height="30" viewBox="0 0 30 30" fill="none" xmlns="http://www.w3.org/2000/svg">
<path d="M14.3213 10.0874L4.36501 20.5368C4.1988 20.7112 4.10608 20.9428 4.10608 21.1837C4.10608 21.4246 4.1988 21.6562 4.36501 21.8306L4.37626 21.8418C4.45683 21.9266 4.55382 21.9942 4.66132 22.0403C4.76882 22.0865 4.88458 22.1103 5.00157 22.1103C5.11856 22.1103 5.23432 22.0865 5.34182 22.0403C5.44932 21.9942 5.54631 21.9266 5.62688 21.8418L15.0019 12.0018L24.3731 21.8418C24.4537 21.9266 24.5507 21.9942 24.6582 22.0403C24.7657 22.0865 24.8815 22.1103 24.9984 22.1103C25.1154 22.1103 25.2312 22.0865 25.3387 22.0403C25.4462 21.9942 25.5432 21.9266 25.6238 21.8418L25.635 21.8306C25.8012 21.6562 25.8939 21.4246 25.8939 21.1837C25.8939 20.9428 25.8012 20.7112 25.635 20.5368L15.6788 10.0874C15.5912 9.99555 15.4859 9.92239 15.3692 9.8724C15.2525 9.82241 15.1269 9.79663 15 9.79663C14.8731 9.79663 14.7475 9.82241 14.6308 9.8724C14.5141 9.92239 14.4088 9.99555 14.3213 10.0874Z" fill="#181818"/>
</svg>
