<svg width="30" height="30" viewBox="0 0 30 30" fill="none" xmlns="http://www.w3.org/2000/svg">
<path d="M14.996 7.3039C10.7369 7.3039 7.29966 10.7412 7.29966 15.0002C7.29966 19.2593 10.7369 22.6965 14.996 22.6965C19.255 22.6965 22.6923 19.2593 22.6923 15.0002C22.6923 10.7412 19.255 7.3039 14.996 7.3039ZM14.996 20.0022C12.2417 20.0022 9.99393 17.7545 9.99393 15.0002C9.99393 12.2459 12.2417 9.99817 14.996 9.99817C17.7503 9.99817 19.998 12.2459 19.998 15.0002C19.998 17.7545 17.7503 20.0022 14.996 20.0022ZM23.0075 5.19502C22.0131 5.19502 21.2101 5.99804 21.2101 6.99245C21.2101 7.98685 22.0131 8.78988 23.0075 8.78988C24.0019 8.78988 24.8049 7.9906 24.8049 6.99245C24.8052 6.75632 24.7589 6.52246 24.6687 6.30425C24.5785 6.08604 24.4461 5.88778 24.2791 5.72081C24.1122 5.55384 23.9139 5.42146 23.6957 5.33123C23.4775 5.24101 23.2436 5.19472 23.0075 5.19502ZM29.9983 15.0002C29.9983 12.9288 30.0171 10.8762 29.9008 8.80864C29.7844 6.40706 29.2366 4.27566 27.4804 2.51951C25.7205 0.759602 23.5929 0.215495 21.1913 0.0991685C19.1199 -0.017158 17.0673 0.00160443 14.9997 0.00160443C12.9284 0.00160443 10.8758 -0.017158 8.80815 0.0991685C6.40658 0.215495 4.27517 0.763355 2.51902 2.51951C0.759114 4.27941 0.215007 6.40706 0.0986802 8.80864C-0.0176462 10.88 0.00111615 12.9326 0.00111615 15.0002C0.00111615 17.0678 -0.0176462 19.1242 0.0986802 21.1918C0.215007 23.5934 0.762867 25.7248 2.51902 27.4809C4.27893 29.2408 6.40658 29.7849 8.80815 29.9012C10.8795 30.0176 12.9321 29.9988 14.9997 29.9988C17.0711 29.9988 19.1237 30.0176 21.1913 29.9012C23.5929 29.7849 25.7243 29.2371 27.4804 27.4809C29.2403 25.721 29.7844 23.5934 29.9008 21.1918C30.0208 19.1242 29.9983 17.0716 29.9983 15.0002ZM26.6962 23.8485C26.4222 24.5315 26.092 25.0418 25.5629 25.5671C25.0338 26.0962 24.5272 26.4265 23.8443 26.7004C21.8705 27.4847 17.1837 27.3083 14.996 27.3083C12.8083 27.3083 8.1177 27.4847 6.1439 26.7041C5.46095 26.4302 4.95062 26.1 4.42527 25.5709C3.89618 25.0418 3.56596 24.5352 3.29203 23.8523C2.51152 21.8747 2.68788 17.1879 2.68788 15.0002C2.68788 12.8125 2.51152 8.12194 3.29203 6.14814C3.56596 5.46519 3.89618 4.95486 4.42527 4.42951C4.95437 3.90417 5.46095 3.5702 6.1439 3.29627C8.1177 2.51576 12.8083 2.69212 14.996 2.69212C17.1837 2.69212 21.8742 2.51576 23.848 3.29627C24.531 3.5702 25.0413 3.90042 25.5667 4.42951C26.0958 4.95861 26.426 5.46519 26.6999 6.14814C27.4804 8.12194 27.3041 12.8125 27.3041 15.0002C27.3041 17.1879 27.4804 21.8747 26.6962 23.8485Z" fill="#181818"/>
</svg>
