<svg width="548" height="173" viewBox="0 0 548 173" fill="none" xmlns="http://www.w3.org/2000/svg">
<path d="M88.7884 0.976298H100.643V50.3282C100.643 55.7629 99.6186 60.14 97.5697 63.4594C95.5532 66.7788 92.8213 69.2033 89.3738 70.7328C85.9589 72.2623 82.1537 73.0271 77.9582 73.0271C73.6001 73.0271 69.7135 72.2623 66.2986 70.7328C62.8836 69.2033 60.2005 66.7788 58.2491 63.4594C56.2977 60.14 55.322 55.7629 55.322 50.3282V0.976298H67.1279V50.3282C67.1279 53.7127 67.5507 56.3324 68.3963 58.1874C69.2745 60.0423 70.5103 61.3278 72.104 62.0437C73.7301 62.7597 75.6815 63.1177 77.9582 63.1177C80.2348 63.1177 82.1699 62.7597 83.7635 62.0437C85.3897 61.3278 86.6256 60.0423 87.4712 58.1874C88.3493 56.3324 88.7884 53.7127 88.7884 50.3282V0.976298Z" fill="#181818"/>
<path d="M159.38 35.5861V63.6058C158.502 64.6797 157.168 65.9652 155.38 67.4622C153.623 68.9266 151.249 70.2284 148.257 71.3674C145.297 72.4738 141.557 73.0271 137.037 73.0271C133.231 73.0271 129.751 72.4088 126.597 71.1721C123.474 69.9355 120.791 68.0642 118.547 65.5584C116.303 63.0526 114.579 59.9284 113.376 56.1859C112.173 52.4109 111.571 47.9525 111.571 42.8107V30.1676C111.571 25.0909 112.108 20.665 113.181 16.89C114.287 13.1149 115.896 9.97451 118.011 7.46868C120.125 4.9303 122.694 3.05907 125.719 1.85497C128.743 0.618322 132.223 0 136.158 0C141.135 0 145.281 0.878668 148.599 2.636C151.948 4.3608 154.502 6.93172 156.258 10.3488C158.047 13.7333 159.087 17.8663 159.38 22.7477H147.818C147.558 19.7538 146.989 17.3293 146.111 15.4743C145.265 13.5868 144.045 12.1875 142.452 11.2762C140.858 10.365 138.809 9.90942 136.305 9.90942C134.028 9.90942 132.077 10.2999 130.451 11.081C128.824 11.862 127.491 13.0824 126.45 14.7421C125.41 16.3693 124.645 18.452 124.157 20.9904C123.67 23.5288 123.426 26.5553 123.426 30.07V42.8107C123.426 46.3904 123.735 49.4658 124.353 52.0367C124.97 54.6076 125.865 56.7229 127.036 58.3826C128.239 60.0098 129.719 61.2139 131.475 61.9949C133.231 62.7434 135.232 63.1177 137.476 63.1177C139.687 63.1177 141.443 62.8899 142.744 62.4343C144.045 61.9786 145.054 61.4742 145.769 60.921C146.517 60.3352 147.119 59.8796 147.574 59.5542V44.9097H136.11V35.5861H159.38Z" fill="#181818"/>
<path d="M218.117 35.5861V63.6058C217.239 64.6797 215.905 65.9652 214.117 67.4622C212.36 68.9266 209.986 70.2284 206.994 71.3674C204.034 72.4738 200.294 73.0271 195.774 73.0271C191.968 73.0271 188.488 72.4088 185.334 71.1721C182.211 69.9355 179.528 68.0642 177.284 65.5584C175.04 63.0526 173.316 59.9284 172.113 56.1859C170.91 52.4109 170.308 47.9525 170.308 42.8107V30.1676C170.308 25.0909 170.844 20.665 171.918 16.89C173.024 13.1149 174.633 9.97451 176.747 7.46868C178.861 4.9303 181.431 3.05907 184.455 1.85497C187.48 0.618322 190.96 0 194.895 0C199.871 0 204.018 0.878668 207.336 2.636C210.685 4.3608 213.238 6.93172 214.995 10.3488C216.784 13.7333 217.824 17.8663 218.117 22.7477H206.555C206.295 19.7538 205.726 17.3293 204.848 15.4743C204.002 13.5868 202.782 12.1875 201.189 11.2762C199.595 10.365 197.546 9.90942 195.042 9.90942C192.765 9.90942 190.814 10.2999 189.188 11.081C187.561 11.862 186.228 13.0824 185.187 14.7421C184.146 16.3693 183.382 18.452 182.894 20.9904C182.406 23.5288 182.163 26.5553 182.163 30.07V42.8107C182.163 46.3904 182.472 49.4658 183.089 52.0367C183.707 54.6076 184.602 56.7229 185.773 58.3826C186.976 60.0098 188.456 61.2139 190.212 61.9949C191.968 62.7434 193.968 63.1177 196.213 63.1177C198.424 63.1177 200.18 62.8899 201.481 62.4343C202.782 61.9786 203.79 61.4742 204.506 60.921C205.254 60.3352 205.856 59.8796 206.311 59.5542V44.9097H194.847V35.5861H218.117Z" fill="#181818"/>
<path d="M242.705 0.976298V72.0508H230.85V0.976298H242.705Z" fill="#181818"/>
<path d="M490.288 130.677V142.784C490.288 147.795 489.702 152.189 488.531 155.964C487.393 159.739 485.734 162.895 483.555 165.434C481.409 167.94 478.807 169.827 475.75 171.096C472.725 172.365 469.343 173 465.602 173C461.895 173 458.512 172.365 455.455 171.096C452.431 169.827 449.812 167.94 447.601 165.434C445.422 162.895 443.731 159.739 442.527 155.964C441.356 152.189 440.771 147.795 440.771 142.784V130.677C440.771 125.601 441.356 121.159 442.527 117.351C443.698 113.511 445.373 110.305 447.552 107.734C449.764 105.164 452.382 103.227 455.406 101.926C458.464 100.624 461.83 99.9729 465.505 99.9729C469.245 99.9729 472.627 100.624 475.652 101.926C478.709 103.227 481.327 105.164 483.506 107.734C485.685 110.305 487.36 113.511 488.531 117.351C489.702 121.159 490.288 125.601 490.288 130.677ZM478.53 142.784V130.58C478.53 126.968 478.238 123.876 477.652 121.305C477.099 118.702 476.27 116.586 475.164 114.959C474.058 113.299 472.692 112.079 471.066 111.298C469.473 110.484 467.619 110.078 465.505 110.078C463.456 110.078 461.618 110.484 459.992 111.298C458.399 112.079 457.033 113.299 455.894 114.959C454.788 116.586 453.943 118.702 453.357 121.305C452.805 123.876 452.528 126.968 452.528 130.58V142.784C452.528 146.331 452.821 149.39 453.406 151.961C453.992 154.499 454.837 156.582 455.943 158.209C457.081 159.804 458.464 160.992 460.09 161.773C461.716 162.554 463.553 162.944 465.602 162.944C467.684 162.944 469.538 162.554 471.164 161.773C472.79 160.992 474.14 159.804 475.213 158.209C476.319 156.582 477.148 154.499 477.701 151.961C478.254 149.39 478.53 146.331 478.53 142.784Z" fill="#ED2D9D"/>
<path fill-rule="evenodd" clip-rule="evenodd" d="M295.978 72.0508V62.1414H268.268V40.3211H291.831V30.5581H268.268V10.9345H295.685V0.976298H268.268V10.9345H265.146V0.976298H256.413V72.0508H265.146H268.268H295.978Z" fill="#181818"/>
<path d="M268.268 0.976298H265.146V10.9345H268.268V0.976298Z" fill="#181818"/>
<path fill-rule="evenodd" clip-rule="evenodd" d="M11.8059 45.6907H23.4655C28.1488 45.6907 32.1492 44.8121 35.4666 43.0547C38.7839 41.2649 41.3208 38.7265 43.077 35.4396C44.8333 32.1527 45.7114 28.215 45.7114 23.6264C45.7114 19.2331 44.8333 15.3441 43.077 11.9597C41.3208 8.54261 38.7839 5.85779 35.4666 3.90519C32.1492 1.9526 28.1488 0.976298 23.4655 0.976298H0V72.0508H11.8059V45.6907ZM11.8059 35.7813H23.4655C25.9047 35.7813 27.8724 35.2606 29.3685 34.2192C30.8971 33.1779 32.0028 31.746 32.6858 29.9235C33.4013 28.1011 33.7591 26.0346 33.7591 23.724C33.7591 21.5111 33.4013 19.4283 32.6858 17.4757C32.0028 15.5231 30.9133 13.9448 29.4173 12.7407C27.9212 11.5366 25.9373 10.9345 23.4655 10.9345H11.8059V35.7813ZM11.8059 35.7813H8.48856V45.6907H11.8059V35.7813Z" fill="#181818"/>
<path d="M8.48856 35.7813V45.6907H11.8059V35.7813H8.48856Z" fill="#181818"/>
<path fill-rule="evenodd" clip-rule="evenodd" d="M11.8547 140.001V162.114H9.90332L4.43942 172.024H0V100.949H21.1726C24.49 100.949 27.4496 101.34 30.0515 102.121C32.6858 102.869 34.9137 104.025 36.735 105.587C38.5563 107.149 39.9385 109.15 40.8817 111.591C41.8574 113.999 42.3452 116.863 42.3452 120.182C42.3452 123.079 41.7273 125.747 40.4914 128.188C39.2555 130.596 37.418 132.581 34.9787 134.143C34.4832 134.458 33.9628 134.747 33.4176 135.01C34.8931 135.433 36.1941 136.072 37.3204 136.926C39.4669 138.52 41.0443 140.587 42.0525 143.125C43.0607 145.664 43.5649 148.381 43.5649 151.277C43.5649 155.801 42.7192 159.608 41.028 162.7C39.3368 165.759 36.9139 168.086 33.7591 169.681C30.6369 171.243 26.8479 172.024 22.3922 172.024H11.8547V162.114H22.3922C24.5062 162.114 26.2462 161.659 27.6122 160.747C28.9782 159.836 30.0027 158.567 30.6857 156.94C31.3686 155.313 31.7101 153.409 31.7101 151.229C31.7101 148.951 31.4174 146.965 30.832 145.273C30.2466 143.581 29.3034 142.279 28.0025 141.368C26.7016 140.457 24.9778 140.001 22.8313 140.001H11.8547ZM21.1238 130.922C23.1077 130.922 24.799 130.531 26.1975 129.75C27.596 128.969 28.653 127.83 29.3685 126.333C30.1165 124.836 30.4905 123.03 30.4905 120.914C30.4905 118.571 30.1653 116.668 29.5148 115.203C28.8644 113.706 27.8399 112.616 26.4414 111.933C25.0754 111.249 23.3191 110.907 21.1726 110.907H11.8547V130.922H21.1238Z" fill="#181818"/>
<path d="M4.43942 172.024H11.8547V162.114H9.90332L4.43942 172.024Z" fill="#181818"/>
<path fill-rule="evenodd" clip-rule="evenodd" d="M80.5925 100.949H83.4221L106.058 172.024H93.6181L88.9975 155.573H67.3448L70.1339 145.615H86.2004L78.1558 116.974L70.1339 145.615H60.8347V155.573H67.3448L62.7373 172.024H50.3459L72.8845 100.949H75.5677H80.5925Z" fill="#181818"/>
<path d="M60.8347 145.615V155.573H67.3448L70.1339 145.615H60.8347Z" fill="#181818"/>
<path fill-rule="evenodd" clip-rule="evenodd" d="M135.671 100.949H114.205V172.024H126.06V144.736H135.731L147.281 172.024H159.965V171.389L146.85 141.722C148.562 140.862 150.088 139.817 151.428 138.585C153.412 136.731 154.924 134.452 155.965 131.751C157.038 129.05 157.575 125.926 157.575 122.379C157.575 117.693 156.713 113.771 154.989 110.615C153.298 107.425 150.826 105.017 147.574 103.39C144.322 101.763 140.354 100.949 135.671 100.949ZM140.793 144.736H135.731L133.768 140.099L146.111 140.05L146.85 141.722C146.028 142.135 145.164 142.505 144.257 142.832L140.793 144.736ZM126.06 134.778H135.378C137.687 134.778 139.606 134.273 141.135 133.265C142.663 132.256 143.801 130.856 144.549 129.067C145.33 127.277 145.72 125.243 145.72 122.965C145.72 120.524 145.379 118.409 144.696 116.619C144.013 114.796 142.94 113.397 141.476 112.421C140.012 111.412 138.077 110.907 135.671 110.907H126.06V134.778Z" fill="#181818"/>
<path d="M140.793 144.736L144.257 142.832C145.164 142.505 146.028 142.135 146.85 141.722L146.111 140.05L133.768 140.099L135.731 144.736H140.793Z" fill="#181818"/>
<path fill-rule="evenodd" clip-rule="evenodd" d="M180.26 140.001V162.114H190.797C192.911 162.114 194.651 161.659 196.017 160.747C197.383 159.836 198.408 158.567 199.091 156.94C199.774 155.313 200.115 153.409 200.115 151.229C200.115 148.951 199.823 146.965 199.237 145.273C198.652 143.581 197.709 142.279 196.408 141.368C195.107 140.457 193.383 140.001 191.237 140.001L194.408 136.877C197.248 136.644 199.72 136.022 201.823 135.01C203.298 135.433 204.599 136.072 205.726 136.926C207.872 138.52 209.45 140.587 210.458 143.125C211.466 145.664 211.97 148.381 211.97 151.277C211.97 155.801 211.124 159.608 209.433 162.7C207.742 165.759 205.319 168.086 202.164 169.681C199.042 171.243 195.253 172.024 190.797 172.024H180.26H172.845H168.405V100.949H189.578C192.895 100.949 195.855 101.34 198.457 102.121C201.091 102.869 203.319 104.025 205.14 105.587C206.962 107.149 208.344 109.15 209.287 111.591C210.263 113.999 210.75 116.863 210.75 120.182C210.75 123.079 210.133 125.747 208.897 128.188C207.661 130.596 205.823 132.581 203.384 134.143C202.888 134.458 202.368 134.747 201.823 135.01C201.717 134.979 201.609 134.95 201.501 134.921C200.25 134.594 198.877 134.416 197.383 134.387L194.651 130.922H189.529C191.513 130.922 193.204 130.531 194.603 129.75C196.001 128.969 197.058 127.83 197.774 126.333C198.522 124.836 198.896 123.03 198.896 120.914C198.896 118.571 198.571 116.668 197.92 115.203C197.27 113.706 196.245 112.616 194.847 111.933C193.481 111.249 191.724 110.907 189.578 110.907H180.26V130.922V140.001Z" fill="#181818"/>
<path d="M191.237 140.001L194.408 136.877C197.248 136.644 199.72 136.022 201.823 135.01C201.717 134.979 201.609 134.95 201.501 134.921C200.25 134.594 198.877 134.416 197.383 134.387L194.651 130.922H189.529H180.26V140.001H191.237Z" fill="#181818"/>
<path fill-rule="evenodd" clip-rule="evenodd" d="M263.389 172.024V162.114H235.68V140.294H259.243V130.531H235.68V110.907H263.097V100.949H235.68V110.907H232.557V100.949H223.825V172.024H232.557H235.68H263.389Z" fill="#181818"/>
<path d="M235.68 100.949H232.557V110.907H235.68V100.949Z" fill="#181818"/>
<path fill-rule="evenodd" clip-rule="evenodd" d="M294.709 100.949H273.244V172.024H285.099V144.736H294.77L306.32 172.024H319.004V171.389L305.888 141.722C307.6 140.862 309.126 139.817 310.467 138.585C312.451 136.731 313.963 134.452 315.004 131.751C316.077 129.05 316.614 125.926 316.614 122.379C316.614 117.693 315.752 113.771 314.028 110.615C312.337 107.425 309.865 105.017 306.613 103.39C303.36 101.763 299.393 100.949 294.709 100.949ZM281.684 144.736H285.099V134.778H294.416C296.726 134.778 298.644 134.273 300.173 133.265C301.702 132.256 302.84 130.856 303.588 129.067C304.369 127.277 304.759 125.243 304.759 122.965C304.759 120.524 304.417 118.409 303.734 116.619C303.051 114.796 301.978 113.397 300.515 112.421C299.051 111.412 297.116 110.907 294.709 110.907H285.099V134.778H281.635L281.684 144.736Z" fill="#181818"/>
<path d="M281.635 134.778L281.684 144.736H285.099V134.778H281.635Z" fill="#181818"/>
<path d="M389.498 140.489V135.51V130.531H392.279V100.949H380.424V172.024H392.279V140.489H389.498Z" fill="#ED2D9D"/>
<path d="M392.279 140.489H416.866V130.531H392.279V140.489Z" fill="#ED2D9D"/>
<path d="M389.498 140.489H392.279V130.531H389.498V135.51V140.489Z" fill="#ED2D9D"/>
<path d="M419.403 140.489V130.531H416.866V140.489H419.403Z" fill="#ED2D9D"/>
<path d="M419.403 130.531V140.489H416.866V172.024H428.672V100.949H416.866V130.531H419.403Z" fill="#ED2D9D"/>
<path d="M510.777 145.664V135.754H514.095V110.907H525.754C528.226 110.907 530.21 111.509 531.706 112.714C533.202 113.918 534.291 115.496 534.974 117.449C535.69 119.401 536.048 121.484 536.048 123.697C536.048 126.008 535.69 128.074 534.974 129.896C534.291 131.719 533.186 133.151 531.657 134.192C530.161 135.234 528.193 135.754 525.754 135.754H514.095V145.664H525.754C530.437 145.664 534.438 144.785 537.755 143.028C541.073 141.238 543.609 138.699 545.366 135.413C547.122 132.126 548 128.188 548 123.599C548 119.206 547.122 115.317 545.366 111.933C543.609 108.516 541.073 105.831 537.755 103.878C534.438 101.926 530.437 100.949 525.754 100.949H502.289V172.024H514.095V145.664H510.777Z" fill="#ED2D9D"/>
<path d="M510.777 135.754V145.664H514.095V135.754H510.777Z" fill="#ED2D9D"/>
<path fill-rule="evenodd" clip-rule="evenodd" d="M331.888 150.448L331.834 167.484C329.623 165.596 327.867 163.237 326.566 160.406C325.297 157.574 324.663 154.255 324.663 150.448H331.888ZM327.688 127.309C328.721 129.507 330.14 131.431 331.943 133.083C331.955 133.095 331.968 133.107 331.981 133.118L331.943 133.083L332.03 105.489C330.143 107.214 328.68 109.28 327.639 111.688C326.631 114.064 326.127 116.7 326.127 119.596C326.127 122.525 326.647 125.096 327.688 127.309Z" fill="#181818"/>
<path d="M357.495 149.764C357.82 150.903 357.983 152.205 357.983 153.669C357.983 155.557 357.642 157.217 356.959 158.648C356.276 160.08 355.219 161.203 353.788 162.017C352.389 162.798 350.584 163.188 348.372 163.188C346.584 163.188 344.958 162.96 343.494 162.505C342.063 162.017 340.811 161.268 339.738 160.259C338.697 159.218 337.9 157.9 337.347 156.305C336.794 154.678 336.518 152.726 336.518 150.448H331.888L331.834 167.484C334.046 169.339 336.55 170.722 339.347 171.633C342.177 172.544 345.12 173 348.177 173C351.495 173 354.487 172.544 357.154 171.633C359.821 170.689 362.097 169.371 363.984 167.679C365.87 165.987 367.301 163.953 368.277 161.577C369.285 159.169 369.789 156.501 369.789 153.572C369.789 150.675 369.382 148.088 368.569 145.81C367.789 143.532 366.585 141.498 364.959 139.708C363.366 137.886 361.333 136.242 358.861 134.778C356.389 133.313 353.495 131.979 350.178 130.775C348.226 130.059 346.502 129.311 345.006 128.53C343.51 127.749 342.242 126.919 341.201 126.04C340.16 125.161 339.364 124.201 338.811 123.16C338.258 122.086 337.981 120.898 337.981 119.596C337.981 117.709 338.307 116.033 338.957 114.569C339.64 113.104 340.681 111.949 342.079 111.103C343.51 110.257 345.315 109.834 347.494 109.834C349.869 109.834 351.804 110.338 353.3 111.347C354.796 112.356 355.902 113.755 356.617 115.545C357.333 117.335 357.69 119.385 357.69 121.696H369.496C369.496 117.693 368.618 114.048 366.862 110.761C365.138 107.474 362.634 104.854 359.349 102.902C356.097 100.949 352.178 99.9729 347.592 99.9729C344.405 99.9729 341.494 100.461 338.859 101.437C336.225 102.381 333.948 103.732 332.03 105.489L331.943 133.083L331.981 133.118C333.835 134.745 335.965 136.21 338.372 137.512C340.811 138.781 343.429 139.952 346.226 141.026C348.665 141.97 350.649 142.897 352.178 143.809C353.739 144.72 354.942 145.647 355.788 146.591C356.633 147.535 357.203 148.593 357.495 149.764Z" fill="#ED2D9D"/>
<path fill-rule="evenodd" clip-rule="evenodd" d="M326.712 63.2153C328.675 63.2153 330.317 62.9078 331.639 62.2927V72.6231C330.028 72.8924 328.32 73.0271 326.517 73.0271C323.46 73.0271 320.516 72.5715 317.687 71.6603C314.89 70.7491 312.386 69.366 310.174 67.511C307.962 65.6235 306.206 63.2641 304.905 60.4328C303.637 57.6016 303.003 54.2822 303.003 50.4746H314.857C314.857 52.7526 315.134 54.7052 315.687 56.3324C316.24 57.927 317.036 59.245 318.077 60.2864C319.15 61.2952 320.402 62.0437 321.834 62.5319C323.297 62.9875 324.923 63.2153 326.712 63.2153ZM328.517 30.8022C329.603 31.1964 330.644 31.6046 331.639 32.0267V44.5344C331.288 44.3005 330.914 44.0676 330.517 43.8358C328.989 42.9246 327.005 41.9971 324.565 41.0533C321.768 39.9794 319.15 38.8078 316.711 37.5387C314.304 36.2369 312.174 34.7725 310.32 33.1453C308.499 31.4856 307.068 29.5493 306.027 27.3363C304.987 25.1234 304.466 22.5525 304.466 19.6236C304.466 16.7272 304.97 14.0912 305.978 11.7156C307.019 9.30737 308.483 7.24088 310.369 5.51608C312.288 3.75875 314.565 2.4082 317.199 1.46445C319.833 0.488149 322.744 0 325.931 0C327.965 0 329.868 0.192021 331.639 0.576063V11.3739C330.143 10.365 328.208 9.86061 325.834 9.86061C323.655 9.86061 321.85 10.2837 320.419 11.1298C319.02 11.9759 317.98 13.1312 317.297 14.5957C316.646 16.0601 316.321 17.7361 316.321 19.6236C316.321 20.9253 316.597 22.1131 317.15 23.1871C317.703 24.2285 318.5 25.1885 319.541 26.0672C320.581 26.9458 321.85 27.7757 323.346 28.5567C324.842 29.3378 326.566 30.0862 328.517 30.8022Z" fill="#181818"/>
<path d="M345.201 10.7881C343.478 7.50122 340.973 4.88149 337.689 2.92889C335.879 1.84225 333.862 1.05798 331.639 0.576063V11.3739C333.135 12.3827 334.241 13.7821 334.957 15.572C335.672 17.3618 336.03 19.4121 336.03 21.7226H347.836C347.836 17.7198 346.958 14.075 345.201 10.7881Z" fill="#ED2D9D"/>
<path d="M335.835 49.7912C336.16 50.9302 336.323 52.2319 336.323 53.6964C336.323 55.5839 335.981 57.2436 335.298 58.6755C334.615 60.1074 333.558 61.2302 332.127 62.0437C331.97 62.1317 331.807 62.2147 331.639 62.2927V72.6231C332.992 72.397 334.276 72.0761 335.493 71.6603C338.16 70.7165 340.437 69.3985 342.323 67.7063C344.21 66.014 345.641 63.9801 346.616 61.6044C347.624 59.1962 348.129 56.5277 348.129 53.5988C348.129 50.7024 347.722 48.1152 346.909 45.8372C346.128 43.5592 344.925 41.5252 343.299 39.7353C341.705 37.9129 339.673 36.2695 337.201 34.805C335.538 33.82 333.684 32.8939 331.639 32.0267V44.5344C332.667 45.22 333.497 45.9146 334.127 46.6182C334.973 47.562 335.542 48.6196 335.835 49.7912Z" fill="#ED2D9D"/>
</svg>
